<svg width="64" height="64" viewBox="0 0 64 64" fill="none" xmlns="http://www.w3.org/2000/svg">
  <rect x="2" y="2" width="60" height="60" rx="18" fill="#0E1628"/>
  <path d="M25.641 18C24.1249 18 22.8841 19.2408 22.8841 20.7569V23.5138H20.1272C18.611 23.5138 17.3702 24.7546 17.3702 26.2708C17.3702 27.7869 18.611 29.0277 20.1272 29.0277H22.8841V31.7846C22.8841 33.3008 24.1249 34.5416 25.641 34.5416C27.1572 34.5416 28.398 33.3008 28.398 31.7846V29.0277H31.1549C32.671 29.0277 33.9118 27.7869 33.9118 26.2708C33.9118 24.7546 32.671 23.5138 31.1549 23.5138H28.398V20.7569C28.398 19.2408 27.1572 18 25.641 18Z" fill="#E8F8F5"/>
  <path d="M39.8908 29.9957C36.7354 29.9957 34.1768 32.5543 34.1768 35.7098C34.1768 38.8652 36.7354 41.4238 39.8908 41.4238C43.0462 41.4238 45.6048 38.8652 45.6048 35.7098C45.6048 32.5543 43.0462 29.9957 39.8908 29.9957ZM39.8908 33.2516C41.2469 33.2516 42.3489 34.3536 42.3489 35.7098C42.3489 37.0659 41.2469 38.1679 39.8908 38.1679C38.5347 38.1679 37.4327 37.0659 37.4327 35.7098C37.4327 34.3536 38.5347 33.2516 39.8908 33.2516Z" fill="#66E0D4"/>
  <path d="M39.7263 17.2065C39.7263 16.5409 40.266 16.0012 40.9316 16.0012H43.342C44.0076 16.0012 44.5473 16.5409 44.5473 17.2065V21.4237H48.7645C49.4301 21.4237 49.9698 21.9634 49.9698 22.629V25.0394C49.9698 25.705 49.4301 26.2447 48.7645 26.2447H44.5473V30.4619C44.5473 31.1275 44.0076 31.6672 43.342 31.6672H40.9316C40.266 31.6672 39.7263 31.1275 39.7263 30.4619V26.2447H35.5091C34.8435 26.2447 34.3038 25.705 34.3038 25.0394V22.629C34.3038 21.9634 34.8435 21.4237 35.5091 21.4237H39.7263V17.2065Z" fill="#9AECE2"/>
  <path d="M18.5042 40.6456C18.5042 38.8249 19.9802 37.3489 21.8009 37.3489H25.0984C26.9191 37.3489 28.3951 38.8249 28.3951 40.6456V43.9431C28.3951 45.7638 26.9191 47.2398 25.0984 47.2398H21.8009C19.9802 47.2398 18.5042 45.7638 18.5042 43.9431V40.6456ZM21.7601 40.6048V43.9839H25.1392V40.6048H21.7601Z" fill="#DDF7F3"/>
</svg>
